# xmcd
#
# Track frame offsets:
#	182
#	13632
#	25637
#	40055
#	55060
#	67635
#	85482
#	100740
#	112855
#	126082
#	139947
#	150380
#	169880
#	179787
#	190725
#	202557
#	212902
#	227782
#	239162
#	250730
#
# Disc length: 3473 seconds
# Revision: 3
# Processed by: cddbd v1.5.2PL0 Copyright (c) Steve Scherf et al.
# Submitted via: dBpowerAMP V12.0
#
DISCID=050d8f14
DTITLE=Rogers, Kenny - The Best of Kenny Rogers
DYEAR=1992
DGENRE=Country
TTITLE0=Ruby, Don't Take Your Love to Town
TTITLE1=Me and Bobby McGee
TTITLE2=Sunshine
TTITLE3=Just Dropped in
TTITLE4=Ruben James
TTITLE5=Something's Burning
TTITLE6=For the Good Times
TTITLE7=Elvira
TTITLE8=Shine on Ruby Mountain
TTITLE9=Loser
TTITLE10=Ticket to Nowhere
TTITLE11=Lay It Down
TTITLE12=New Design
TTITLE13=Always Leaving, Always Gone
TTITLE14=What Am I Gonna Do
TTITLE15=Goodtime Liberator
TTITLE16=All God's Lonely Children
TTITLE17=If Wishes Were Horses
TTITLE18=Girl Get a Hold of Yourself
TTITLE19=Once Again She's All Alone
EXTD=
EXTT0=
EXTT1=
EXTT2=
EXTT3=
EXTT4=
EXTT5=
EXTT6=
EXTT7=
EXTT8=
EXTT9=
EXTT10=
EXTT11=
EXTT12=
EXTT13=
EXTT14=
EXTT15=
EXTT16=
EXTT17=
EXTT18=
EXTT19=
PLAYORDER=
